# xmcd
#
# Track frame offsets:
# 150
# 25300
# 40468
# 54725
# 74018
# 87063
# 98848
# 114700
# 127610
# 150505
#
# Disc length: 2296 seconds
#
# Revision: 0
# Processed by: cddbd v1.5.2PL0 Copyright (c) Steve Scherf et al.
# Submitted via: Axialis_AX_CDPlayer 2.6
#
DISCID=7f08f60a
DTITLE=Flora Molton And The Truth Band - Living Country Blues USA Volume 3 -
DTITLE=\nFlora Molton And The Truth Band from Washington, D.C., USA
DYEAR=1900
DGENRE=
TTITLE0=Last Words My Mother Said To Me
TTITLE1=I Can't Stand It
TTITLE2=Mean Old World
TTITLE3=My Mother Left Me Standing On The Lonesome Highway
TTITLE4=Bye And Bye I'm Going To See The King
TTITLE5=Your Enemy Can't Harm You
TTITLE6=Louis Armstrong
TTITLE7=Get Right With God
TTITLE8=The Trainsong
TTITLE9=Vacation In Heaven
EXTD=
EXTT0=
EXTT1=
EXTT2=
EXTT3=
EXTT4=
EXTT5=
EXTT6=
EXTT7=
EXTT8=
EXTT9=
PLAYORDER=
